# xmcd
#
# Track frame offsets: 
#        150
#        22781
#        45412
#        68043
#        90674
#
# Disc length: 1506 seconds
#
# Revision: 1
# Processed by: cddbd v1.5.2PL0 Copyright (c) Steve Scherf et al.
# Submitted via: ExactAudioCopy v1.0b6
#
DISCID=2e05e005
DTITLE=Troy Sneed - All Is Well (Daywind Soundtrack) (2012)
DYEAR=2012
DGENRE=Performance Trax
TTITLE0=All Is Well - High (with BGV's) [Key of Db]
TTITLE1=All Is Well - High (without BGV's) [Key of Db]
TTITLE2=All Is Well - Demo
TTITLE3=All Is Well - Low (with BGV's) [Key of Bb]
TTITLE4=All Is Well - Low (without BGV's) [Key of Bb]
EXTD=YEAR: 2004
EXTT0=
EXTT1=
EXTT2=
EXTT3=
EXTT4=
PLAYORDER=
